#!OML:ASF H:\GeneralSubjects\Female5\Project 1\Capture day 1\Session 1\Female5.ASF
:FULLY-SPECIFIED
:DEGREES
389
root 21.1057 15.7166 4.37607 -167.981 31.0904 -168.934
lowerback 8.46363 2.12571 0.68587
upperback -8.93685 3.50355 0.702034
thorax -14.6488 1.78509 -0.379603
lowerneck -15.3405 2.78298 8.44959
upperneck 35.4402 5.4093 -3.07684
head 15.2864 3.96887 -1.57635
rclavicle -9.323e-014 -3.65764e-014
rhumerus -58.0996 17.7527 -84.9242
rradius 35.3528
rwrist -5.03111
rhand -24.0493 -16.5506
rfingers 7.12502
rthumb 2.42974 -46.5165
lclavicle -9.323e-014 -3.65764e-014
lhumerus -42.5632 1.79826 69.0111
lradius 31.9002
lwrist -0.00614584
lhand -29.1412 28.9792
lfingers 7.12502
lthumb -2.48808 58.9444
rfemur -10.0954 8.28761 31.8876
rtibia 9.21674
rfoot -14.7069 -12.8976
rtoes -1.97051
lfemur -13.5241 -12.5927 2.01786
ltibia 42.4919
lfoot -23.7545 8.25764
ltoes -28.0501
390
root 21.3559 15.7313 4.41771 -167.86 31.1944 -168.254
lowerback 8.5401 2.20245 1.22208
upperback -8.85437 3.68526 0.740628
thorax -14.567 1.81359 -0.673514
lowerneck -15.2483 2.76737 8.59512
upperneck 35.4018 5.3448 -3.06059
head 15.2465 3.9657 -1.60792
rclavicle -1.98785e-015 1.11319e-014
rhumerus -56.875 18.4997 -84.3888
rradius 36.7278
rwrist -5.42289
rhand -24.7152 -16.5118
rfingers 7.12502
rthumb 1.78665 -46.4841
lclavicle -1.98785e-015 1.11319e-014
lhumerus -43.4479 2.73016 67.7685
lradius 30.3308
lwrist -0.509193
lhand -29.292 29.5861
lfingers 7.12502
lthumb -2.6337 59.5496
rfemur -9.29581 7.87985 33.6643
rtibia 8.96786
rfoot -14.1578 -12.27
rtoes -2.74046
lfemur -16.5224 -11.8416 2.91946
ltibia 47.1306
lfoot -25.5536 9.83055
ltoes -27.2982
391
root 21.5909 15.7453 4.45309 -167.661 31.3695 -167.602
lowerback 8.56075 2.29386 1.85277
upperback -8.78845 3.90077 0.756416
thorax -14.4588 1.84929 -1.04955
lowerneck -15.1725 2.76423 8.71615
upperneck 35.3171 5.28457 -3.02655
head 15.1873 3.95809 -1.62766
rclavicle 1.06549e-013 4.77083e-014
rhumerus -55.6093 19.2764 -83.7591
rradius 38.1374
rwrist -5.62223
rhand -25.22 -16.3665
rfingers 7.12502
rthumb 1.29911 -46.3423
lclavicle 1.06549e-013 4.77083e-014
lhumerus -44.3058 3.89024 66.3665
lradius 28.7298
lwrist -1.35573
lhand -29.1345 30.2563
lfingers 7.12502
lthumb -2.48161 60.2216
rfemur -8.59231 7.53135 35.3037
rtibia 8.68063
rfoot -13.7811 -11.5701
rtoes -2.46037
lfemur -19.5196 -11.1772 3.44017
ltibia 51.2432
lfoot -27.5627 10.2062
ltoes -26.758
392
root 21.811 15.7575 4.48299 -167.399 31.6554 -167.026
lowerback 8.54171 2.41225 2.48832
upperback -8.74932 4.15479 0.758643
thorax -14.3517 1.90428 -1.44906
lowerneck -15.1254 2.77732 8.79247
upperneck 35.2226 5.24348 -2.96265
head 15.1292 3.9539 -1.62351
rclavicle -3.08116e-014 -4.77083e-015
rhumerus -54.2978 20.0866 -83.0199
rradius 39.522
rwrist -5.62749
rhand -25.6488 -16.1395
rfingers 7.12502
rthumb 0.884953 -46.1174
lclavicle -3.08116e-014 -4.77083e-015
lhumerus -45.1874 5.30935 64.7942
lradius 27.1797
lwrist -2.58666
lhand -28.7078 30.884
lfingers 7.12502
lthumb -2.0695 60.8537
rfemur -7.98373 7.27369 36.7553
rtibia 8.33479
rfoot -13.5453 -10.8344
rtoes -1.2046
lfemur -22.4863 -10.4813 3.50344
ltibia 54.7428
lfoot -29.4715 9.57538
ltoes -26.5494
393
root 22.0157 15.7678 4.50823 -167.101 32.0764 -166.584
lowerback 8.50683 2.56509 3.07659
upperback -8.74376 4.44649 0.722849
thorax -14.2687 1.98062 -1.87087
lowerneck -15.1064 2.79409 8.83404
upperneck 35.141 5.20589 -2.87233
head 15.0822 3.9495 -1.60114
rclavicle 6.04305e-014 1.59028e-014
rhumerus -52.925 20.8825 -82.1962
rradius 40.8084
rwrist -5.4527
rhand -26.0902 -15.8711
rfingers 7.12502
rthumb 0.458626 -45.8503
lclavicle 6.04305e-014 1.59028e-014
lhumerus -46.1181 6.77259 63.144
lradius 25.7678
lwrist -3.98845
lhand -28.4962 31.5006
lfingers 7.12502
lthumb -1.86514 61.4722
rfemur -7.46299 7.10401 37.9663
rtibia 7.92101
rfoot -13.3478 -10.1031
rtoes 0.509901
lfemur -25.4197 -9.71966 3.01984
ltibia 57.626
lfoot -31.1407 8.22092
ltoes -26.599
394
root 22.2069 15.7764 4.52996 -166.784 32.6267 -166.266
lowerback 8.48486 2.74891 3.58406
upperback -8.77167 4.76832 0.658747
thorax -14.2301 2.07731 -2.28586
lowerneck -15.0944 2.80966 8.8651
upperneck 35.0747 5.17381 -2.78811
head 15.0445 3.94591 -1.5783
rclavicle 5.18828e-014 2.06736e-014
rhumerus -51.4967 21.6434 -81.3236
rradius 41.9487
rwrist -5.13071
rhand -26.5851 -15.6263
rfingers 7.12502
rthumb -0.0193845 -45.606
lclavicle 5.18828e-014 2.06736e-014
lhumerus -47.1219 8.13596 61.5085
lradius 24.5729
lwrist -5.36914
lhand -28.0412 31.9524
lfingers 7.12502
lthumb -1.42571 61.9274
rfemur -6.99041 7.02669 38.9642
rtibia 7.42457
rfoot -13.1184 -9.41919
rtoes 2.15962
lfemur -28.298 -8.92319 2.02094
ltibia 59.9219
lfoot -32.5492 6.14622
ltoes -26.6795
395
root 22.3867 15.7847 4.54838 -166.479 33.3005 -166.103
lowerback 8.47268 2.9649 3.95865
upperback -8.82688 5.1127 0.563204
thorax -14.2302 2.19511 -2.6671
lowerneck -15.0833 2.82865 8.90897
upperneck 35.0181 5.15637 -2.73451
head 15.0143 3.94672 -1.56779
rclavicle -4.77083e-015 1.59028e-014
rhumerus -50.0155 22.3451 -80.4244
rradius 42.9221
rwrist -4.72329
rhand -27.1073 -15.4363
rfingers 7.12502
rthumb -0.523761 -45.4154
lclavicle -4.77083e-015 1.59028e-014
lhumerus -48.1797 9.25938 60.0136
lradius 23.6443
lwrist -6.49677
lhand -27.7355 32.1198
lfingers 7.12502
lthumb -1.13049 62.0966
rfemur -6.54978 7.01172 39.7334
rtibia 6.84633
rfoot -12.7995 -8.79344
rtoes 3.34573
lfemur -31.0908 -8.12201 0.490015
ltibia 61.6235
lfoot -33.6846 3.75575
ltoes -26.9101
396
root 22.5581 15.7933 4.56368 -166.196 34.0682 -166.059
lowerback 8.47125 3.20561 4.21097
upperback -8.89339 5.47139 0.45171
thorax -14.2525 2.32997 -3.00162
lowerneck -15.0735 2.84707 8.95331
upperneck 34.9604 5.1527 -2.72336
head 14.9861 3.94728 -1.57281
rclavicle -1.4392e-013 -3.65764e-014
rhumerus -48.4832 22.9783 -79.5279
rradius 43.729
rwrist -4.29931
rhand -27.6187 -15.2933
rfingers 7.12502
rthumb -1.01761 -45.2706
lclavicle -1.4392e-013 -3.65764e-014
lhumerus -49.2519 10.0525 58.7781
lradius 23.0039
lwrist -7.22199
lhand -27.642 32.137
lfingers 7.12502
lthumb -1.04016 62.1142
rfemur -6.09883 7.01269 40.332
rtibia 6.18314
rfoot -12.3737 -8.22538
rtoes 4.00107
lfemur -33.7155 -7.46478 -1.40746
ltibia 62.755
lfoot -34.4614 1.50702
ltoes -27.0848
397
root 22.7242 15.8023 4.57568 -165.938 34.9045 -166.079
lowerback 8.48461 3.46118 4.38585
upperback -8.95613 5.83735 0.334328
thorax -14.2804 2.47485 -3.30164
lowerneck -15.0711 2.8736 8.99012
upperneck 34.896 5.16963 -2.73761
head 14.9586 3.9509 -1.58361
rclavicle 1.76918e-014 -1.27222e-014
rhumerus -46.9135 23.5478 -78.681
rradius 44.3926
rwrist -3.915
rhand -28.0823 -15.1739
rfingers 7.12502
rthumb -1.46544 -45.1486
lclavicle 1.76918e-014 -1.27222e-014
lhumerus -50.2923 10.4893 57.8687
lradius 22.6437
lwrist -7.5256
lhand -27.4392 32.0032
lfingers 7.12502
lthumb -0.844254 61.9813
rfemur -5.60095 6.99945 40.8315
rtibia 5.44716
rfoot -11.8647 -7.70546
rtoes 4.11543
lfemur -36.0878 -6.91729 -3.55865
ltibia 63.2465
lfoot -34.8564 -0.476894
ltoes -27.1261
398
root 22.8877 15.8115 4.584 -165.713 35.7872 -166.152
lowerback 8.50222 3.71974 4.50227
upperback -9.00713 6.19503 0.207245
thorax -14.2979 2.62084 -3.57767
lowerneck -15.082 2.91205 9.01721
upperneck 34.8346 5.2071 -2.75676
head 14.9371 3.96053 -1.59099
rclavicle -1.72943e-014 -3.33958e-014
rhumerus -45.3215 24.062 -77.931
rradius 44.9393
rwrist -3.6011
rhand -28.4633 -15.0374
rfingers 7.12502
rthumb -1.83338 -45.0093
lclavicle -1.72943e-014 -3.33958e-014
lhumerus -51.2393 10.5019 57.3724
lradius 22.5213
lwrist -7.37255
lhand -27.4416 31.8472
lfingers 7.12502
lthumb -0.846622 61.8253
rfemur -5.04196 6.9646 41.2594
rtibia 4.65709
rfoot -11.3098 -7.21733
rtoes 3.87802
lfemur -38.1534 -6.45287 -5.88994
ltibia 63.079
lfoot -34.8507 -2.04057
ltoes -27.0922
399
root 23.0508 15.8202 4.58876 -165.513 36.6849 -166.234
lowerback 8.52261 3.97198 4.61275
upperback -9.03966 6.53891 0.0715138
thorax -14.2922 2.76067 -3.85565
lowerneck -15.1204 2.97088 9.0578
upperneck 34.792 5.2669 -2.76746
head 14.9332 3.98254 -1.59247
rclavicle 1.00983e-013 2.06736e-014
rhumerus -43.7245 24.5131 -77.3135
rradius 45.3937
rwrist -3.36195
rhand -28.7538 -14.8651
rfingers 7.12502
rthumb -2.11392 -44.8344
lclavicle 1.00983e-013 2.06736e-014
lhumerus -52.0557 10.2058 57.2087
lradius 22.59
lwrist -7.00514
lhand -27.6989 31.7823
lfingers 7.12502
lthumb -1.09514 61.7593
rfemur -4.41909 6.91045 41.6715
rtibia 3.84761
rfoot -10.7724 -6.73019
rtoes 3.83033
lfemur -39.8848 -6.06352 -8.30418
ltibia 62.2721
lfoot -34.4871 -3.16371
ltoes -27.0613
400
root 23.2154 15.8268 4.59073 -165.313 37.5682 -166.267
lowerback 8.54965 4.20952 4.73784
upperback -9.05544 6.86523 -0.047058
thorax -14.2697 2.89241 -4.11821
lowerneck -15.1829 3.04412 9.10518
upperneck 34.7772 5.34538 -2.77114
head 14.9496 4.01526 -1.588
rclavicle -7.23576e-014 -1.59028e-015
rhumerus -42.1575 24.9291 -76.8415
rradius 45.7864
rwrist -3.20003
rhand -28.952 -14.6653
rfingers 7.12502
rthumb -2.30539 -44.6326
lclavicle -7.23576e-014 -1.59028e-015
lhumerus -52.7372 9.71433 57.2907
lradius 22.8042
lwrist -6.61118
lhand -28.0645 31.8134
lfingers 7.12502
lthumb -1.44821 61.7882
rfemur -3.74965 6.84315 42.1291
rtibia 3.07141
rfoot -10.2897 -6.21969
rtoes 4.19195
lfemur -41.3012 -5.72024 -10.7031
ltibia 60.9246
lfoot -33.8404 -3.85054
ltoes -27.1091
401
root 23.381 15.8304 4.58971 -165.085 38.4229 -166.238
lowerback 8.56899 4.42941 4.90881
upperback -9.06558 7.17432 -0.159801
thorax -14.2299 3.01284 -4.39407
lowerneck -15.2688 3.13138 9.17475
upperneck 34.7889 5.43329 -2.75806
head 14.9853 4.05809 -1.57773
rclavicle 7.0171e-014 2.38542e-014
rhumerus -40.6512 25.3093 -76.5436
rradius 46.1323
rwrist -3.08959
rhand -29.0622 -14.4628
rfingers 7.12502
rthumb -2.41179 -44.429
lclavicle 7.0171e-014 2.38542e-014
lhumerus -53.2744 9.0812 57.5303
lradius 23.137
lwrist -6.24285
lhand -29.0621 32.0217
lfingers 7.12502
lthumb -2.41168 61.9879
rfemur -3.0852 6.72727 42.6336
rtibia 2.3785
rfoot -9.81651 -5.62803
rtoes 4.74705
lfemur -42.425 -5.4063 -13.0452
ltibia 59.084
lfoot -33.104 -2.31699
ltoes -28.3072
402
root 23.5479 15.8301 4.58509 -164.793 39.2378 -166.134
lowerback 8.48859 4.53919 4.84683
upperback -9.04813 7.32302 -0.0401356
thorax -14.1676 3.10168 -4.24555
lowerneck -15.314 3.33093 9.24556
upperneck 34.8017 5.75992 -2.91368
head 15.0375 4.17872 -1.59638
rclavicle 5.46658e-014 2.70347e-014
rhumerus -39.1077 26.2022 -76.3192
rradius 46.4594
rwrist -3.08406
rhand -29.0986 -14.3097
rfingers 7.12502
rthumb -2.4469 -44.2754
lclavicle 5.46658e-014 2.70347e-014
lhumerus -53.9458 8.7913 57.8441
lradius 23.5759
lwrist -5.94141
lhand -29.7488 32.1889
lfingers 7.12502
lthumb -3.07488 62.1465
rfemur -2.47016 6.5401 43.1802
rtibia 1.79101
rfoot -9.32425 -4.90437
rtoes 5.19638
lfemur -43.3029 -5.15202 -15.2823
ltibia 56.8281
lfoot -31.9753 -0.578003
ltoes -30.5123
